# xmcd
#
# Track frame offsets:
#	150
#	17865
#	32228
#	50188
#	65591
#	84089
#	99737
#	114176
#	131036
#	147055
#	165950
#	185701
#	200500
#	218513
#
# Disc length: 3116 seconds
#
# Revision: 0
# Processed by: cddbd v1.5.2PL0 Copyright (c) Steve Scherf et al.
# Submitted via: audiograbber 1.83.01
#
DISCID=c20c2a0e
DTITLE=DJ Ötzi - Sternstunden
DYEAR=1900
DGENRE=
TTITLE0=Ein Stern (...der deinen Namen trägt)
TTITLE1=Hintermoser Kathi (A Dirndl wie a Zelt)
TTITLE2=7 Sünden
TTITLE3=Biabal in Mir
TTITLE4=Aber dich gibt´s nur einmal für mich
TTITLE5=Pronto Guiseppe!
TTITLE6=Die Fischerin vom Bodensee
TTITLE7=Was Liebe war, muss Liebe bleib´n
TTITLE8=Das Kufsteiner Lied
TTITLE9=Rosamunde
TTITLE10=Gute Freunde (der 12. Mann)
TTITLE11=La Ola Walzer
TTITLE12=Bitte gib mir eine Chance
TTITLE13=Ein Stern (...der deinen Namen trägt) Radio Version
EXTD=
EXTT0=
EXTT1=
EXTT2=
EXTT3=
EXTT4=
EXTT5=
EXTT6=
EXTT7=
EXTT8=
EXTT9=
EXTT10=
EXTT11=
EXTT12=
EXTT13=
PLAYORDER=
